# Export of DemoDay
# from Aaro4130 OBJ Exporter v2.0
mtllib fence.mtl
g WoodFence1
v -0.9856905 0.568783 -0.05381778
v -1.036479 0.568783 -0.08323614
v -1.070682 1 -0.07115773
v -1.004453 1 -0.03279608
v -1.036479 0.568783 -0.08323614
v -1.051591 0.568783 -0.1399512
v -1.090387 1 -0.1451144
v -1.070682 1 -0.07115773
v -1.051591 0.568783 -0.1399512
v -1.022172 0.568783 -0.19074
v -1.052025 1 -0.2113432
v -1.090387 1 -0.1451144
v -1.022172 0.568783 -0.19074
v -0.9654571 0.568783 -0.2058511
v -0.9780684 1 -0.2310482
v -1.052025 1 -0.2113432
v -0.9654571 0.568783 -0.2058511
v -0.9146684 0.568783 -0.1764328
v -0.9118396 1 -0.1926865
v -0.9780684 1 -0.2310482
v -0.9146684 0.568783 -0.1764328
v -0.8921345 1 -0.1187299
v -0.9118396 1 -0.1926865
v -0.8995571 0.568783 -0.1197178
v -0.9118396 0 -0.1926865
v -0.8921345 0 -0.1187299
v -0.9304962 1 -0.05250113
v -1.004453 1 -0.03279608
v -1.070682 1 -0.07115773
v -1.090387 1 -0.1451144
v -0.8921345 1 -0.1187299
v -0.9118396 1 -0.1926865
v -1.052025 1 -0.2113432
v -0.9780684 1 -0.2310482
v -0.8995571 0.568783 -0.1197178
v -0.9304962 1 -0.05250113
v -0.8921345 1 -0.1187299
v -0.9289756 0.568783 -0.06892899
v -0.8921345 0 -0.1187299
v -0.9304962 0 -0.05250113
v -0.9289756 0.568783 -0.06892899
v -0.9856905 0.568783 -0.05381778
v -1.004453 1 -0.03279608
v -0.9304962 1 -0.05250113
v 0.9803894 0.462963 0.2136089
v 0.9258122 0.462963 0.1819963
v 0.9118396 1 0.1926865
v 0.9780684 1 0.2310482
v 0.9258122 0.462963 0.1819963
v 0.9095739 0.462963 0.1210508
v 0.8921345 1 0.1187299
v 0.9118396 1 0.1926865
v 0.9095739 0.462963 0.1210508
v 0.9411865 0.462963 0.06647368
v 0.9304962 1 0.05250112
v 0.8921345 1 0.1187299
v 0.9411865 0.462963 0.06647368
v 1.002132 0.462963 0.05023535
v 1.004453 1 0.03279608
v 0.9304962 1 0.05250112
v 1.002132 0.462963 0.05023535
v 1.056709 0.462963 0.08184801
v 1.070682 1 0.07115775
v 1.004453 1 0.03279608
v 1.056709 0.462963 0.08184801
v 1.072947 0.462963 0.1427934
v 1.090387 1 0.1451143
v 1.070682 1 0.07115775
v 1.052025 1 0.2113431
v 0.9780684 1 0.2310482
v 0.9118396 1 0.1926865
v 0.8921345 1 0.1187299
v 1.090387 1 0.1451143
v 1.070682 1 0.07115775
v 0.9304962 1 0.05250112
v 1.004453 1 0.03279608
v 1.072947 0.462963 0.1427934
v 1.041335 0.462963 0.1973706
v 1.052025 1 0.2113431
v 1.090387 1 0.1451143
v 1.041335 0.462963 0.1973706
v 0.9803894 0.462963 0.2136089
v 0.9780684 1 0.2310482
v 1.052025 1 0.2113431
v 0.3803763 0.5917659 0.09075698
v -0.996509 0.6000456 -0.09248611
v -0.996509 0.7999544 -0.09248611
v 0.3048463 0.7765839 0.08070505
v 0.9860123 0.6000456 0.1713582
v 0.3803763 0.5917659 0.09075698
v 0.9860123 0.7999544 0.1713582
v 0.390873 0.5917659 0.01188492
v 0.996509 0.6000456 0.09248611
v 0.996509 0.7999544 0.09248611
v 0.315343 0.7765839 0.001832987
v -0.9860123 0.6000456 -0.1713582
v 0.390873 0.5917659 0.01188492
v -0.9860123 0.7999544 -0.1713582
v 0.3803763 0.5917659 0.09075698
v -0.9860123 0.6000456 -0.1713582
v -0.996509 0.6000456 -0.09248611
v 0.390873 0.5917659 0.01188492
v 0.9860123 0.6000456 0.1713582
v 0.996509 0.6000456 0.09248611
v 0.3048463 0.7765839 0.08070505
v 0.315343 0.7765839 0.001832987
v 0.996509 0.7999544 0.09248611
v 0.9860123 0.7999544 0.1713582
v -0.2650692 0.2256998 0.004857717
v -0.996509 0.2000455 -0.09248611
v -0.996509 0.3999544 -0.09248611
v -0.1325161 0.3743001 0.02249858
v -0.2545725 0.2256998 -0.07401434
v 0.996509 0.2000455 0.09248611
v 0.996509 0.3999544 0.09248611
v -0.1220194 0.3743001 -0.05637348
v -0.2650692 0.2256998 0.004857717
v -0.2545725 0.2256998 -0.07401434
v -0.9860123 0.2000455 -0.1713582
v -0.996509 0.2000455 -0.09248611
v -0.1325161 0.3743001 0.02249858
v -0.1220194 0.3743001 -0.05637348
v 0.996509 0.3999544 0.09248611
v 0.9860123 0.3999544 0.1713582
v 1.052025 0 0.2113431
v 0.9780684 0 0.2310482
v 0.9803894 0.462963 0.2136089
v 1.041335 0.462963 0.1973706
v 1.090387 0 0.1451143
v 1.052025 0 0.2113431
v 1.041335 0.462963 0.1973706
v 1.072947 0.462963 0.1427934
v 1.070682 0 0.07115775
v 1.090387 0 0.1451143
v 1.072947 0.462963 0.1427934
v 1.056709 0.462963 0.08184801
v 1.004453 0 0.03279608
v 1.070682 0 0.07115775
v 1.056709 0.462963 0.08184801
v 1.002132 0.462963 0.05023535
v 0.9304962 0 0.05250112
v 1.004453 0 0.03279608
v 1.002132 0.462963 0.05023535
v 0.9411865 0.462963 0.06647368
v 0.8921345 0 0.1187299
v 0.9304962 0 0.05250112
v 0.9411865 0.462963 0.06647368
v 0.9095739 0.462963 0.1210508
v 0.9118396 0 0.1926865
v 0.8921345 0 0.1187299
v 0.9095739 0.462963 0.1210508
v 0.9258122 0.462963 0.1819963
v 0.9780684 0 0.2310482
v 0.9118396 0 0.1926865
v 0.9258122 0.462963 0.1819963
v 0.9803894 0.462963 0.2136089
v -0.9304962 0 -0.05250113
v -1.004453 0 -0.03279608
v -0.9856905 0.568783 -0.05381778
v -0.9289756 0.568783 -0.06892899
v -0.9780684 0 -0.2310482
v -0.9118396 0 -0.1926865
v -0.9146684 0.568783 -0.1764328
v -0.9654571 0.568783 -0.2058511
v -1.052025 0 -0.2113432
v -0.9780684 0 -0.2310482
v -0.9654571 0.568783 -0.2058511
v -1.022172 0.568783 -0.19074
v -1.090387 0 -0.1451144
v -1.052025 0 -0.2113432
v -1.022172 0.568783 -0.19074
v -1.051591 0.568783 -0.1399512
v -1.070682 0 -0.07115773
v -1.090387 0 -0.1451144
v -1.051591 0.568783 -0.1399512
v -1.036479 0.568783 -0.08323614
v -1.004453 0 -0.03279608
v -1.070682 0 -0.07115773
v -1.036479 0.568783 -0.08323614
v -0.9856905 0.568783 -0.05381778
v -0.996509 0.7999544 -0.09248611
v -0.9860123 0.7999544 -0.1713582
v 0.315343 0.7765839 0.001832987
v 0.3048463 0.7765839 0.08070505
v -0.996509 0.3999544 -0.09248611
v -0.9860123 0.3999544 -0.1713582
v -0.1220194 0.3743001 -0.05637348
v -0.1325161 0.3743001 0.02249858
v 0.9860123 0.2000455 0.1713582
v 0.996509 0.2000455 0.09248611
v -0.2545725 0.2256998 -0.07401434
v -0.2650692 0.2256998 0.004857717
v -0.9860123 0.2000455 -0.1713582
v -0.2545725 0.2256998 -0.07401434
v -0.1220194 0.3743001 -0.05637348
v -0.9860123 0.3999544 -0.1713582
v 0.9860123 0.2000455 0.1713582
v -0.2650692 0.2256998 0.004857717
v -0.1325161 0.3743001 0.02249858
v 0.9860123 0.3999544 0.1713582
vn -0.2887885 -0.03687052 0.4985733
vn -0.2887885 -0.03687052 0.4985733
vn -0.2887885 -0.03687052 0.4985733
vn -0.2887885 -0.03687052 0.4985733
vn -0.5559362 -0.04824336 0.1481249
vn -0.5559362 -0.04824336 0.1481249
vn -0.5559362 -0.04824336 0.1481249
vn -0.5559362 -0.04824336 0.1481249
vn -0.4978455 -0.04824336 -0.2883677
vn -0.4978455 -0.04824336 -0.2883677
vn -0.4978455 -0.04824336 -0.2883677
vn -0.4978455 -0.04824336 -0.2883677
vn -0.1483407 -0.03687051 -0.5567487
vn -0.1483407 -0.03687051 -0.5567487
vn -0.1483407 -0.03687051 -0.5567487
vn -0.1483407 -0.03687051 -0.5567487
vn 0.2891925 -0.02071595 -0.4992715
vn 0.2891925 -0.02071595 -0.4992715
vn 0.2891925 -0.02071595 -0.4992715
vn 0.2891925 -0.02071595 -0.4992715
vn 0.5578158 -0.009261293 -0.1486246
vn 0.5578158 -0.009261293 -0.1486246
vn 0.5578158 -0.009261293 -0.1486246
vn 0.5578158 -0.009261293 -0.1486246
vn 0.5578464 0.007021739 -0.1486326
vn 0.5578464 0.007021739 -0.1486326
vn 0 0.5773501 0
vn 0 0.5773501 0
vn 0 0.5773501 0
vn 0 0.5773501 0
vn 0 0.5773501 0
vn 0 0.5773501 0
vn 0 0.5773501 0
vn 0 0.5773501 0
vn 0.499529 -0.009261295 0.2893416
vn 0.499529 -0.009261295 0.2893416
vn 0.499529 -0.009261295 0.2893416
vn 0.499529 -0.009261295 0.2893416
vn 0.4995564 0.007021739 0.2893572
vn 0.4995564 0.007021739 0.2893572
vn 0.148548 -0.02071596 0.5575284
vn 0.148548 -0.02071596 0.5575284
vn 0.148548 -0.02071596 0.5575284
vn 0.148548 -0.02071596 0.5575284
vn -0.2892464 -0.01746591 0.4993646
vn -0.2892464 -0.01746591 0.4993646
vn -0.2892464 -0.01746591 0.4993646
vn -0.2892464 -0.01746591 0.4993646
vn -0.5576323 -0.01746592 0.1485756
vn -0.5576323 -0.01746592 0.1485756
vn -0.5576323 -0.01746592 0.1485756
vn -0.5576323 -0.01746592 0.1485756
vn -0.4993646 -0.01746592 -0.2892464
vn -0.4993646 -0.01746592 -0.2892464
vn -0.4993646 -0.01746592 -0.2892464
vn -0.4993646 -0.01746592 -0.2892464
vn -0.1485757 -0.01746591 -0.5576323
vn -0.1485757 -0.01746591 -0.5576323
vn -0.1485757 -0.01746591 -0.5576323
vn -0.1485757 -0.01746591 -0.5576323
vn 0.2892467 -0.01746595 -0.4993644
vn 0.2892467 -0.01746595 -0.4993644
vn 0.2892467 -0.01746595 -0.4993644
vn 0.2892467 -0.01746595 -0.4993644
vn 0.5576322 -0.01746591 -0.1485762
vn 0.5576322 -0.01746591 -0.1485762
vn 0.5576322 -0.01746591 -0.1485762
vn 0.5576322 -0.01746591 -0.1485762
vn 0 0.5773501 0
vn 0 0.5773501 0
vn 0 0.5773501 0
vn 0 0.5773501 0
vn 0 0.5773501 0
vn 0 0.5773501 0
vn 0 0.5773501 0
vn 0 0.5773501 0
vn 0.4993644 -0.01746591 0.2892467
vn 0.4993644 -0.01746591 0.2892467
vn 0.4993644 -0.01746591 0.2892467
vn 0.4993644 -0.01746591 0.2892467
vn 0.1485761 -0.01746595 0.5576321
vn 0.1485761 -0.01746595 0.5576321
vn 0.1485761 -0.01746595 0.5576321
vn 0.1485761 -0.01746595 0.5576321
vn -0.07616527 0 0.5723044
vn -0.07616527 0 0.5723044
vn -0.07616527 0 0.5723044
vn -0.07616527 0 0.5723044
vn -0.07616527 0 0.5723044
vn -0.07616527 0 0.5723044
vn -0.07616527 0 0.5723044
vn 0.07616527 0 -0.5723044
vn 0.07616527 0 -0.5723044
vn 0.07616527 0 -0.5723044
vn 0.07616527 0 -0.5723044
vn 0.07616527 0 -0.5723044
vn 0.07616527 0 -0.5723044
vn 0.07616527 0 -0.5723044
vn -0.003411325 -0.5773399 -0.000453997
vn -0.003411325 -0.5773399 -0.000453997
vn -0.003411325 -0.5773399 -0.000453997
vn -0.003411325 -0.5773399 -0.000453997
vn 0.007754916 -0.5772972 0.001032065
vn 0.007754916 -0.5772972 0.001032065
vn -0.01945267 0.5770165 -0.002588863
vn -0.01945267 0.5770165 -0.002588863
vn -0.01945267 0.5770165 -0.002588863
vn -0.01945267 0.5770165 -0.002588863
vn -0.07616527 0 0.5723044
vn -0.07616527 0 0.5723044
vn -0.07616527 0 0.5723044
vn -0.07616527 0 0.5723044
vn 0.07616527 0 -0.5723044
vn 0.07616527 0 -0.5723044
vn 0.07616527 0 -0.5723044
vn 0.07616527 0 -0.5723044
vn 0.01988537 -0.5770015 0.002646449
vn 0.01988537 -0.5770015 0.002646449
vn 0.01988537 -0.5770015 0.002646449
vn 0.01988537 -0.5770015 0.002646449
vn -0.01300815 0.5772009 -0.001731193
vn -0.01300815 0.5772009 -0.001731193
vn -0.01300815 0.5772009 -0.001731193
vn -0.01300815 0.5772009 -0.001731193
vn 0.1485525 0.0202573 0.557544
vn 0.1485525 0.0202573 0.557544
vn 0.1485525 0.0202573 0.557544
vn 0.1485525 0.0202573 0.557544
vn 0.4992853 0.02025725 0.2892011
vn 0.4992853 0.02025725 0.2892011
vn 0.4992853 0.02025725 0.2892011
vn 0.4992853 0.02025725 0.2892011
vn 0.5575439 0.02025725 -0.1485528
vn 0.5575439 0.02025725 -0.1485528
vn 0.5575439 0.02025725 -0.1485528
vn 0.5575439 0.02025725 -0.1485528
vn 0.289201 0.02025729 -0.4992855
vn 0.289201 0.02025729 -0.4992855
vn 0.289201 0.02025729 -0.4992855
vn 0.289201 0.02025729 -0.4992855
vn -0.1485523 0.02025727 -0.5575441
vn -0.1485523 0.02025727 -0.5575441
vn -0.1485523 0.02025727 -0.5575441
vn -0.1485523 0.02025727 -0.5575441
vn -0.4992856 0.02025726 -0.2892007
vn -0.4992856 0.02025726 -0.2892007
vn -0.4992856 0.02025726 -0.2892007
vn -0.4992856 0.02025726 -0.2892007
vn -0.5575441 0.02025726 0.1485523
vn -0.5575441 0.02025726 0.1485523
vn -0.5575441 0.02025726 0.1485523
vn -0.5575441 0.02025726 0.1485523
vn -0.2892007 0.02025727 0.4992856
vn -0.2892007 0.02025727 0.4992856
vn -0.2892007 0.02025727 0.4992856
vn -0.2892007 0.02025727 0.4992856
vn 0.1485887 0.01570989 0.5576811
vn 0.1485887 0.01570989 0.5576811
vn 0.1485887 0.01570989 0.5576811
vn 0.1485887 0.01570989 0.5576811
vn 0.2892716 0.01570988 -0.4994082
vn 0.2892716 0.01570988 -0.4994082
vn 0.2892716 0.01570988 -0.4994082
vn 0.2892716 0.01570988 -0.4994082
vn -0.1484693 0.02797724 -0.5572321
vn -0.1484693 0.02797724 -0.5572321
vn -0.1484693 0.02797724 -0.5572321
vn -0.1484693 0.02797724 -0.5572321
vn -0.4985864 0.03662964 -0.2887963
vn -0.4985864 0.03662964 -0.2887963
vn -0.4985864 0.03662964 -0.2887963
vn -0.4985864 0.03662964 -0.2887963
vn -0.5567635 0.03662964 0.1483448
vn -0.5567635 0.03662964 0.1483448
vn -0.5567635 0.03662964 0.1483448
vn -0.5567635 0.03662964 0.1483448
vn -0.289039 0.02797725 0.4990063
vn -0.289039 0.02797725 0.4990063
vn -0.289039 0.02797725 0.4990063
vn -0.289039 0.02797725 0.4990063
vn 0.01018633 0.5772586 0.00135565
vn 0.01018633 0.5772586 0.00135565
vn 0.01018633 0.5772586 0.00135565
vn 0.01018633 0.5772586 0.00135565
vn 0.01683745 0.5771002 0.002240815
vn 0.01683745 0.5771002 0.002240815
vn 0.01683745 0.5771002 0.002240815
vn 0.01683745 0.5771002 0.002240815
vn -0.01163052 -0.5772309 -0.001547851
vn -0.01163052 -0.5772309 -0.001547851
vn -0.01163052 -0.5772309 -0.001547851
vn -0.01163052 -0.5772309 -0.001547851
vn 0.07616527 0 -0.5723044
vn 0.07616527 0 -0.5723044
vn 0.07616527 0 -0.5723044
vn 0.07616527 0 -0.5723044
vn -0.07616527 0 0.5723044
vn -0.07616527 0 0.5723044
vn -0.07616527 0 0.5723044
vn -0.07616527 0 0.5723044
vt 1 0.7843915
vt 0.875 0.7843915
vt 0.875 1
vt 1 1
vt 0.875 0.7843915
vt 0.75 0.7843915
vt 0.75 1
vt 0.875 1
vt 0.75 0.7843915
vt 0.625 0.7843915
vt 0.625 1
vt 0.75 1
vt 0.625 0.7843915
vt 0.5 0.7843915
vt 0.5 1
vt 0.625 1
vt 0.5 0.7843915
vt 0.375 0.7843915
vt 0.375 1
vt 0.5 1
vt 0.375 0.7843915
vt 0.25 1
vt 0.375 1
vt 0.25 0.7843915
vt 0.375 0.5
vt 0.25 0.5
vt 0.08029436 0.4197056
vt 0.25 0.49
vt 0.4197056 0.4197056
vt 0.49 0.25
vt 0.01000001 0.25
vt 0.08029436 0.08029442
vt 0.4197056 0.08029437
vt 0.25 0.01000001
vt 0.25 0.7843915
vt 0.125 1
vt 0.25 1
vt 0.125 0.7843916
vt 0.25 0.5
vt 0.125 0.5
vt 0.125 0.7843916
vt 0 0.7843915
vt 0 1
vt 0.125 1
vt 1 0.7314814
vt 0.8750001 0.7314814
vt 0.875 1
vt 1 1
vt 0.8750001 0.7314814
vt 0.75 0.7314815
vt 0.75 1
vt 0.875 1
vt 0.75 0.7314815
vt 0.625 0.7314814
vt 0.625 1
vt 0.75 1
vt 0.625 0.7314814
vt 0.5 0.7314814
vt 0.5 1
vt 0.625 1
vt 0.5 0.7314814
vt 0.375 0.7314814
vt 0.375 1
vt 0.5 1
vt 0.375 0.7314814
vt 0.25 0.7314814
vt 0.25 1
vt 0.375 1
vt 0.08029436 0.4197056
vt 0.25 0.49
vt 0.4197056 0.4197056
vt 0.49 0.25
vt 0.01000001 0.25
vt 0.08029436 0.08029442
vt 0.4197056 0.08029437
vt 0.25 0.01000001
vt 0.25 0.7314814
vt 0.125 0.7314814
vt 0.125 1
vt 0.25 1
vt 0.125 0.7314814
vt 0 0.7314814
vt 0 1
vt 0.125 1
vt 0.375 0.3301451
vt 0.375 0.5
vt 0.625 0.5
vt 0.625 0.3301451
vt 0.375 0.25
vt 0.375 0.3301451
vt 0.625 0.25
vt 0.375 0.9198549
vt 0.375 1
vt 0.625 1
vt 0.625 0.9198549
vt 0.375 0.75
vt 0.375 0.9198549
vt 0.625 0.75
vt 0.2051451 0.5
vt 0.375 0.75
vt 0.375 0.5
vt 0.2051451 0.75
vt 0.125 0.5
vt 0.125 0.75
vt 0.7948549 0.5
vt 0.7948549 0.75
vt 0.875 0.75
vt 0.875 0.5
vt 0.375 0.3994063
vt 0.375 0.5
vt 0.625 0.5
vt 0.625 0.3994063
vt 0.375 0.8505937
vt 0.375 1
vt 0.625 1
vt 0.625 0.8505937
vt 0.2744063 0.5
vt 0.2744063 0.75
vt 0.375 0.75
vt 0.375 0.5
vt 0.7255936 0.5
vt 0.7255936 0.75
vt 0.875 0.75
vt 0.875 0.5
vt 0.125 0.5
vt 0 0.5
vt 0 0.7314814
vt 0.125 0.7314814
vt 0.25 0.5
vt 0.125 0.5
vt 0.125 0.7314814
vt 0.25 0.7314814
vt 0.375 0.5
vt 0.25 0.5
vt 0.25 0.7314814
vt 0.375 0.7314814
vt 0.5 0.5
vt 0.375 0.5
vt 0.375 0.7314814
vt 0.5 0.7314814
vt 0.625 0.5
vt 0.5 0.5
vt 0.5 0.7314814
vt 0.625 0.7314814
vt 0.75 0.5
vt 0.625 0.5
vt 0.625 0.7314814
vt 0.75 0.7314815
vt 0.875 0.5
vt 0.75 0.5
vt 0.75 0.7314815
vt 0.8750001 0.7314814
vt 1 0.5
vt 0.875 0.5
vt 0.8750001 0.7314814
vt 1 0.7314814
vt 0.125 0.5
vt 0 0.5
vt 0 0.7843915
vt 0.125 0.7843916
vt 0.5 0.5
vt 0.375 0.5
vt 0.375 0.7843915
vt 0.5 0.7843915
vt 0.625 0.5
vt 0.5 0.5
vt 0.5 0.7843915
vt 0.625 0.7843915
vt 0.75 0.5
vt 0.625 0.5
vt 0.625 0.7843915
vt 0.75 0.7843915
vt 0.875 0.5
vt 0.75 0.5
vt 0.75 0.7843915
vt 0.875 0.7843915
vt 1 0.5
vt 0.875 0.5
vt 0.875 0.7843915
vt 1 0.7843915
vt 0.625 0.5
vt 0.625 0.75
vt 0.7948549 0.75
vt 0.7948549 0.5
vt 0.625 0.5
vt 0.625 0.75
vt 0.7255936 0.75
vt 0.7255936 0.5
vt 0.125 0.5
vt 0.125 0.75
vt 0.2744063 0.75
vt 0.2744063 0.5
vt 0.375 0.75
vt 0.375 0.8505937
vt 0.625 0.8505937
vt 0.625 0.75
vt 0.375 0.25
vt 0.375 0.3994063
vt 0.625 0.3994063
vt 0.625 0.25
usemtl Wood1Mat
f 3/3/3 2/2/2 1/1/1
f 4/4/4 3/3/3 1/1/1
f 7/7/7 6/6/6 5/5/5
f 8/8/8 7/7/7 5/5/5
f 11/11/11 10/10/10 9/9/9
f 12/12/12 11/11/11 9/9/9
f 15/15/15 14/14/14 13/13/13
f 16/16/16 15/15/15 13/13/13
f 19/19/19 18/18/18 17/17/17
f 20/20/20 19/19/19 17/17/17
f 23/23/23 22/22/22 21/21/21
f 22/22/22 24/24/24 21/21/21
f 21/21/21 24/24/24 25/25/25
f 24/24/24 26/26/26 25/25/25
f 29/29/29 28/28/28 27/27/27
f 27/27/27 30/30/30 29/29/29
f 27/27/27 31/31/31 30/30/30
f 31/31/31 32/32/32 30/30/30
f 32/32/32 33/33/33 30/30/30
f 32/32/32 34/34/34 33/33/33
f 37/37/37 36/36/36 35/35/35
f 36/36/36 38/38/38 35/35/35
f 35/35/35 38/38/38 39/39/39
f 38/38/38 40/40/40 39/39/39
f 43/43/43 42/42/42 41/41/41
f 44/44/44 43/43/43 41/41/41
f 47/47/47 46/46/46 45/45/45
f 48/48/48 47/47/47 45/45/45
f 51/51/51 50/50/50 49/49/49
f 52/52/52 51/51/51 49/49/49
f 55/55/55 54/54/54 53/53/53
f 56/56/56 55/55/55 53/53/53
f 59/59/59 58/58/58 57/57/57
f 60/60/60 59/59/59 57/57/57
f 63/63/63 62/62/62 61/61/61
f 64/64/64 63/63/63 61/61/61
f 67/67/67 66/66/66 65/65/65
f 68/68/68 67/67/67 65/65/65
f 71/71/71 70/70/70 69/69/69
f 69/69/69 72/72/72 71/71/71
f 69/69/69 73/73/73 72/72/72
f 73/73/73 74/74/74 72/72/72
f 74/74/74 75/75/75 72/72/72
f 74/74/74 76/76/76 75/75/75
f 79/79/79 78/78/78 77/77/77
f 80/80/80 79/79/79 77/77/77
f 83/83/83 82/82/82 81/81/81
f 84/84/84 83/83/83 81/81/81
f 87/87/87 86/86/86 85/85/85
f 88/88/88 87/87/87 85/85/85
f 88/88/88 90/90/90 89/89/89
f 91/91/91 88/88/88 89/89/89
f 94/94/94 93/93/93 92/92/92
f 95/95/95 94/94/94 92/92/92
f 95/95/95 97/97/97 96/96/96
f 98/98/98 95/95/95 96/96/96
f 101/101/101 100/100/100 99/99/99
f 100/100/100 102/102/102 99/99/99
f 99/99/99 102/102/102 103/103/103
f 102/102/102 104/104/104 103/103/103
f 107/107/107 106/106/106 105/105/105
f 108/108/108 107/107/107 105/105/105
f 111/111/111 110/110/110 109/109/109
f 112/112/112 111/111/111 109/109/109
f 115/115/115 114/114/114 113/113/113
f 116/116/116 115/115/115 113/113/113
f 119/119/119 118/118/118 117/117/117
f 120/120/120 119/119/119 117/117/117
f 123/123/123 122/122/122 121/121/121
f 124/124/124 123/123/123 121/121/121
f 127/127/127 126/126/126 125/125/125
f 128/128/128 127/127/127 125/125/125
f 131/131/131 130/130/130 129/129/129
f 132/132/132 131/131/131 129/129/129
f 135/135/135 134/134/134 133/133/133
f 136/136/136 135/135/135 133/133/133
f 139/139/139 138/138/138 137/137/137
f 140/140/140 139/139/139 137/137/137
f 143/143/143 142/142/142 141/141/141
f 144/144/144 143/143/143 141/141/141
f 147/147/147 146/146/146 145/145/145
f 148/148/148 147/147/147 145/145/145
f 151/151/151 150/150/150 149/149/149
f 152/152/152 151/151/151 149/149/149
f 155/155/155 154/154/154 153/153/153
f 156/156/156 155/155/155 153/153/153
f 159/159/159 158/158/158 157/157/157
f 160/160/160 159/159/159 157/157/157
f 163/163/163 162/162/162 161/161/161
f 164/164/164 163/163/163 161/161/161
f 167/167/167 166/166/166 165/165/165
f 168/168/168 167/167/167 165/165/165
f 171/171/171 170/170/170 169/169/169
f 172/172/172 171/171/171 169/169/169
f 175/175/175 174/174/174 173/173/173
f 176/176/176 175/175/175 173/173/173
f 179/179/179 178/178/178 177/177/177
f 180/180/180 179/179/179 177/177/177
f 183/183/183 182/182/182 181/181/181
f 184/184/184 183/183/183 181/181/181
f 187/187/187 186/186/186 185/185/185
f 188/188/188 187/187/187 185/185/185
f 191/191/191 190/190/190 189/189/189
f 192/192/192 191/191/191 189/189/189
f 195/195/195 194/194/194 193/193/193
f 196/196/196 195/195/195 193/193/193
f 199/199/199 198/198/198 197/197/197
f 200/200/200 199/199/199 197/197/197
