# Export of DemoDay
# from Aaro4130 OBJ Exporter v2.0
mtllib small_purple_mushroom.mtl
g Mushroom3
v 0.02075235 0.1155263 -0.02218195
v 0.03366876 0.2038555 -0.005758679
v 0.01878422 0.2000834 -0.03153119
v 0.03533465 0.1154152 0.004035303
v 0.01541384 7.984844E-05 -0.02573727
v 0.02999614 -3.116614E-05 0.0004799821
v 0.03533465 0.1154152 0.004035303
v 0.01992081 0.1153354 0.02977257
v 0.01880112 0.2037899 0.02029797
v 0.03366876 0.2038555 -0.005758679
v 0.01992081 0.1153354 0.02977257
v -0.01007534 0.1153666 0.02929259
v -0.01095105 0.1999522 0.02058211
v 0.01880112 0.2037899 0.02029797
v -0.01007534 0.1153666 0.02929259
v -0.02583558 0.1961801 -0.0051904
v -0.01095105 0.1999522 0.02058211
v -0.02465764 0.1154776 0.003075337
v -0.01541385 -7.983353E-05 0.02573727
v -0.02999614 3.118104E-05 -0.0004799845
v -0.02465764 0.1154776 0.003075337
v -0.009243797 0.1155574 -0.02266193
v -0.01096795 0.1962458 -0.03124705
v -0.02583558 0.1961801 -0.0051904
v -0.009243797 0.1155574 -0.02266193
v 0.02075235 0.1155263 -0.02218195
v 0.01878422 0.2000834 -0.03153119
v -0.01096795 0.1962458 -0.03124705
v -0.0145823 0.000111022 -0.02621725
v 0.01541384 7.984844E-05 -0.02573727
v 0.02075235 0.1155263 -0.02218195
v -0.009243797 0.1155574 -0.02266193
v -0.02999614 3.118104E-05 -0.0004799845
v -0.0145823 0.000111022 -0.02621725
v -0.009243797 0.1155574 -0.02266193
v -0.02465764 0.1154776 0.003075337
v 0.0145823 -0.0001110071 0.02621725
v -0.01541385 -7.983353E-05 0.02573727
v -0.01007534 0.1153666 0.02929259
v 0.01992081 0.1153354 0.02977257
v 0.02999614 -3.116614E-05 0.0004799821
v 0.0145823 -0.0001110071 0.02621725
v 0.01992081 0.1153354 0.02977257
v 0.03533465 0.1154152 0.004035303
v 0.0453615 0.2461485 -0.0275448
v 0.09324636 0.2011148 -0.04532558
v 0.06607158 0.2337037 0.05043395
v 0.06607158 0.2337037 0.05043395
v 0.09324636 0.2011148 -0.04532558
v 0.03518859 0.204444 0.09692177
v -0.02587986 0.2396393 0.06261301
v 0.06607158 0.2337037 0.05043395
v 0.03518859 0.204444 0.09692177
v 0.03518859 0.204444 0.09692177
v -0.07274885 0.1871451 0.07475153
v -0.02587986 0.2396393 0.06261301
v -0.02587986 0.2396393 0.06261301
v -0.07274885 0.1871451 0.07475153
v -0.09347091 0.2090126 -0.01283184
v -0.07274885 0.1871451 0.07475153
v -0.1065195 0.1728192 -0.02198746
v -0.09347091 0.2090126 -0.01283184
v -0.02587986 0.2396393 0.06261301
v -0.09347091 0.2090126 -0.01283184
v -0.03442603 0.2437315 -0.01819748
v -0.09347091 0.2090126 -0.01283184
v -0.06110254 0.203763 -0.074765
v -0.03442603 0.2437315 -0.01819748
v -0.06110254 0.203763 -0.074765
v -0.1065195 0.1728192 -0.02198746
v -0.01141549 0.179989 -0.1030445
v -0.03442603 0.2437315 -0.01819748
v -0.06110254 0.203763 -0.074765
v 0.01123633 0.2136988 -0.09088484
v 0.01123633 0.2136988 -0.09088484
v 0.09324636 0.2011148 -0.04532558
v 0.0453615 0.2461485 -0.0275448
v 0.0453615 0.2461485 -0.0275448
v 0.06607158 0.2337037 0.05043395
v -0.02587986 0.2396393 0.06261301
v 0.0453615 0.2461485 -0.0275448
v -0.02587986 0.2396393 0.06261301
v -0.03442603 0.2437315 -0.01819748
v -0.09347091 0.2090126 -0.01283184
v -0.1065195 0.1728192 -0.02198746
v -0.06110254 0.203763 -0.074765
v -0.01141549 0.179989 -0.1030445
v 0.01123633 0.2136988 -0.09088484
v -0.06110254 0.203763 -0.074765
v 0.01123633 0.2136988 -0.09088484
v 0.0453615 0.2461485 -0.0275448
v -0.03442603 0.2437315 -0.01819748
v 0.03518859 0.204444 0.09692177
v 0.09324636 0.2011148 -0.04532558
v -0.01141549 0.179989 -0.1030445
v -0.01141549 0.179989 -0.1030445
v -0.1065195 0.1728192 -0.02198746
v 0.03518859 0.204444 0.09692177
v -0.1065195 0.1728192 -0.02198746
v -0.07274885 0.1871451 0.07475153
v 0.03518859 0.204444 0.09692177
v -0.01141549 0.179989 -0.1030445
v 0.09324636 0.2011148 -0.04532558
v 0.01123633 0.2136988 -0.09088484
vn 0.5025839 -0.02080152 -0.2833904
vn 0.5025839 -0.02080152 -0.2833904
vn 0.5025839 -0.02080152 -0.2833904
vn 0.5025839 -0.02080152 -0.2833904
vn 0.5043651 -0.01468171 -0.2805952
vn 0.5043651 -0.01468171 -0.2805952
vn 0.4972 0.03950543 0.2908005
vn 0.4972 0.03950543 0.2908005
vn 0.4972 0.03950543 0.2908005
vn 0.4972 0.03950543 0.2908005
vn -0.005722061 0.0602742 0.5741669
vn -0.005722061 0.0602742 0.5741669
vn -0.005722061 0.0602742 0.5741669
vn -0.005722061 0.0602742 0.5741669
vn -0.5025781 0.0228466 0.2832431
vn -0.5025781 0.0228466 0.2832431
vn -0.5025781 0.0228466 0.2832431
vn -0.5025781 0.0228466 0.2832431
vn -0.5043651 0.01468171 0.2805951
vn -0.5043651 0.01468171 0.2805951
vn -0.4972121 -0.03930398 -0.2908069
vn -0.4972121 -0.03930398 -0.2908069
vn -0.4972121 -0.03930398 -0.2908069
vn -0.4972121 -0.03930398 -0.2908069
vn 0.00584155 -0.06216274 -0.5739643
vn 0.00584155 -0.06216274 -0.5739643
vn 0.00584155 -0.06216274 -0.5739643
vn 0.00584155 -0.06216274 -0.5739643
vn 0.009251071 0.01734215 -0.5770156
vn 0.009251071 0.01734215 -0.5770156
vn 0.009251071 0.01734215 -0.5770156
vn 0.009251071 0.01734215 -0.5770156
vn -0.4945985 0.03199051 -0.2961118
vn -0.4945985 0.03199051 -0.2961118
vn -0.4945985 0.03199051 -0.2961118
vn -0.4945985 0.03199051 -0.2961118
vn -0.009251137 -0.01734215 0.5770156
vn -0.009251137 -0.01734215 0.5770156
vn -0.009251137 -0.01734215 0.5770156
vn -0.009251137 -0.01734215 0.5770156
vn 0.4945985 -0.03199052 0.2961118
vn 0.4945985 -0.03199052 0.2961118
vn 0.4945985 -0.03199052 0.2961118
vn 0.4945985 -0.03199052 0.2961118
vn 0.3878612 0.4262311 -0.0349874
vn 0.3878612 0.4262311 -0.0349874
vn 0.3878612 0.4262311 -0.0349874
vn 0.5009727 -0.1965932 0.2090714
vn 0.5009727 -0.1965932 0.2090714
vn 0.5009727 -0.1965932 0.2090714
vn 0.07473914 0.4608201 0.3396942
vn 0.07473914 0.4608201 0.3396942
vn 0.07473914 0.4608201 0.3396942
vn -0.1425004 0.2436874 0.5036302
vn -0.1425004 0.2436874 0.5036302
vn -0.1425004 0.2436874 0.5036302
vn -0.3849792 0.3871385 0.187745
vn -0.3849792 0.3871385 0.187745
vn -0.3849792 0.3871385 0.187745
vn -0.5327686 0.1506733 0.1636719
vn -0.5327686 0.1506733 0.1636719
vn -0.5327686 0.1506733 0.1636719
vn -0.2875207 0.4975675 0.05560332
vn -0.2875207 0.4975675 0.05560332
vn -0.2875207 0.4975675 0.05560332
vn -0.289044 0.4621648 -0.1902382
vn -0.289044 0.4621648 -0.1902382
vn -0.289044 0.4621648 -0.1902382
vn -0.338753 -0.2128116 -0.4162823
vn -0.338753 -0.2128116 -0.4162823
vn -0.338753 -0.2128116 -0.4162823
vn -0.1297769 0.4864852 -0.2825303
vn -0.1297769 0.4864852 -0.2825303
vn -0.1297769 0.4864852 -0.2825303
vn 0.2483709 0.3972917 -0.3373493
vn 0.2483709 0.3972917 -0.3373493
vn 0.2483709 0.3972917 -0.3373493
vn 0.04718678 0.5700469 0.07844283
vn 0.04718678 0.5700469 0.07844283
vn 0.04718678 0.5700469 0.07844283
vn -0.01386908 0.5763691 0.03065381
vn -0.01386908 0.5763691 0.03065381
vn -0.01386908 0.5763691 0.03065381
vn -0.4603183 0.2317837 -0.2602245
vn -0.4603183 0.2317837 -0.2602245
vn -0.4603183 0.2317837 -0.2602245
vn -0.1460949 0.2737873 -0.4868574
vn -0.1460949 0.2737873 -0.4868574
vn -0.1460949 0.2737873 -0.4868574
vn -0.04431559 0.5216665 -0.2433794
vn -0.04431559 0.5216665 -0.2433794
vn -0.04431559 0.5216665 -0.2433794
vn 0.08504596 -0.56879 0.05077895
vn 0.08504596 -0.56879 0.05077895
vn 0.08504596 -0.56879 0.05077895
vn 0.08504596 -0.56879 0.05077895
vn 0.08504596 -0.56879 0.05077895
vn 0.08504596 -0.56879 0.05077895
vn 0.08504596 -0.56879 0.05077895
vn 0.08504596 -0.56879 0.05077895
vn 0.08504596 -0.56879 0.05077895
vn 0.2796875 -0.005761364 -0.5050496
vn 0.2796875 -0.005761364 -0.5050496
vn 0.2796875 -0.005761364 -0.5050496
vt 1 0.7886598
vt 0.8333333 1
vt 1 1
vt 0.8333334 0.7886598
vt 1 0.5
vt 0.8333333 0.5
vt 0.8333334 0.7886598
vt 0.6666666 0.7886598
vt 0.6666666 1
vt 0.8333333 1
vt 0.6666666 0.7886598
vt 0.4999999 0.7886598
vt 0.4999999 1
vt 0.6666666 1
vt 0.4999999 0.7886598
vt 0.3333333 1
vt 0.4999999 1
vt 0.3333333 0.7886598
vt 0.4999999 0.5
vt 0.3333333 0.5
vt 0.3333333 0.7886598
vt 0.1666666 0.7886598
vt 0.1666666 1
vt 0.3333333 1
vt 0.1666666 0.7886598
vt -8.940697E-08 0.7886598
vt -8.940697E-08 1
vt 0.1666666 1
vt 0.1666666 0.5
vt -8.940697E-08 0.5
vt -8.940697E-08 0.7886598
vt 0.1666666 0.7886598
vt 0.3333333 0.5
vt 0.1666666 0.5
vt 0.1666666 0.7886598
vt 0.3333333 0.7886598
vt 0.6666666 0.5
vt 0.4999999 0.5
vt 0.4999999 0.7886598
vt 0.6666666 0.7886598
vt 0.8333333 0.5
vt 0.6666666 0.5
vt 0.6666666 0.7886598
vt 0.8333334 0.7886598
vt 0.6287717 0.8017839
vt 0.6423843 0.5319293
vt 0.4850206 0.6531099
vt 0.4850206 0.6531099
vt 0.6423843 0.5319293
vt 0.3926199 0.5033593
vt 0.3077767 0.7465754
vt 0.4850206 0.6531099
vt 0.3926199 0.5033593
vt 0.3926199 0.5033593
vt 0.2319268 0.5283581
vt 0.3077767 0.7465754
vt 0.3077767 0.7465754
vt 0.2319268 0.5283581
vt 0.07303865 0.6733214
vt 0.2319268 0.5283581
vt 0.06569386 0.5054303
vt 0.07303865 0.6733214
vt 0.3077767 0.7465754
vt 0.07303865 0.6733214
vt 0.1033989 0.8578635
vt 0.9881704 0.7276249
vt 0.9356804 0.6452078
vt 0.7947528 0.9388553
vt 0.9356804 0.6452078
vt 0.5912146 0.5
vt 0.851729 0.5006237
vt 0.7947528 0.9388553
vt 0.9356804 0.6452078
vt 0.8009464 0.654765
vt 0.8009464 0.654765
vt 0.6423843 0.5319293
vt 0.6287717 0.8017839
vt 0.6287717 0.8017839
vt 0.4850206 0.6531099
vt 0.3077767 0.7465754
vt 0.6287717 0.8017839
vt 0.3077767 0.7465754
vt 0.1033989 0.8578635
vt 0.07303865 0.6733214
vt 0.06569386 0.5054303
vt 2.98713E-08 0.5938224
vt 0.851729 0.5006237
vt 0.8009464 0.654765
vt 0.9356804 0.6452078
vt 0.8009464 0.654765
vt 0.6287717 0.8017839
vt 0.7947528 0.9388553
vt 0.3926199 0.5033593
vt 0.6423843 0.5319293
vt 0.851729 0.5006237
vt 0.851729 0.5006237
vt 0.06569386 0.5054303
vt 0.3926199 0.5033593
vt 0.06569386 0.5054303
vt 0.2319268 0.5283581
vt 0.3926199 0.5033593
vt 0.851729 0.5006237
vt 0.6423843 0.5319293
vt 0.8009464 0.654765
usemtl Wood2Mat
f 3/3/3 2/2/2 1/1/1
f 2/2/2 4/4/4 1/1/1
f 1/1/1 4/4/4 5/5/5
f 4/4/4 6/6/6 5/5/5
f 9/9/9 8/8/8 7/7/7
f 10/10/10 9/9/9 7/7/7
f 13/13/13 12/12/12 11/11/11
f 14/14/14 13/13/13 11/11/11
f 17/17/17 16/16/16 15/15/15
f 16/16/16 18/18/18 15/15/15
f 15/15/15 18/18/18 19/19/19
f 18/18/18 20/20/20 19/19/19
f 23/23/23 22/22/22 21/21/21
f 24/24/24 23/23/23 21/21/21
f 27/27/27 26/26/26 25/25/25
f 28/28/28 27/27/27 25/25/25
f 31/31/31 30/30/30 29/29/29
f 32/32/32 31/31/31 29/29/29
f 35/35/35 34/34/34 33/33/33
f 36/36/36 35/35/35 33/33/33
f 39/39/39 38/38/38 37/37/37
f 40/40/40 39/39/39 37/37/37
f 43/43/43 42/42/42 41/41/41
f 44/44/44 43/43/43 41/41/41
usemtl Mushroom3Mat
f 47/47/47 46/46/46 45/45/45
f 50/50/50 49/49/49 48/48/48
f 53/53/53 52/52/52 51/51/51
f 56/56/56 55/55/55 54/54/54
f 59/59/59 58/58/58 57/57/57
f 62/62/62 61/61/61 60/60/60
f 65/65/65 64/64/64 63/63/63
f 68/68/68 67/67/67 66/66/66
f 71/71/71 70/70/70 69/69/69
f 74/74/74 73/73/73 72/72/72
f 77/77/77 76/76/76 75/75/75
f 80/80/80 79/79/79 78/78/78
f 83/83/83 82/82/82 81/81/81
f 86/86/86 85/85/85 84/84/84
f 89/89/89 88/88/88 87/87/87
f 92/92/92 91/91/91 90/90/90
f 95/95/95 94/94/94 93/93/93
f 98/98/98 97/97/97 96/96/96
f 101/101/101 100/100/100 99/99/99
f 104/104/104 103/103/103 102/102/102
