# Export of DemoDay
# from Aaro4130 OBJ Exporter v2.0
mtllib red_mushroom_large.mtl
g MushroomLarge
v -0.1769719 0.6538438 -0.01042623
v 0.01379488 0.6504393 -0.1954616
v 0.01349288 0.6776971 0.1110673
v -0.07258333 0.5024385 -0.3625296
v -0.2099204 0.2463407 -0.3891677
v 0.01598159 0.2510709 -0.4565678
v 0.01379488 0.6504393 -0.1954616
v -0.07258333 0.5024385 -0.3625296
v 0.2082071 0.460314 -0.3325699
v -0.07258333 0.5024385 -0.3625296
v 0.01598159 0.2510709 -0.4565678
v 0.2082071 0.460314 -0.3325699
v 0.2302142 0.6259207 0.02267539
v 0.3572494 0.4482964 -0.1802056
v 0.3558575 0.4954314 0.04875167
v 0.3558575 0.4954314 0.04875167
v 0.3572494 0.4482964 -0.1802056
v 0.4562823 0.2569238 -0.06127308
v 0.2302142 0.6259207 0.02267539
v 0.3558575 0.4954314 0.04875167
v 0.2119948 0.5189326 0.2705939
v 0.07510648 0.4826702 0.3677495
v 0.3117606 0.2644598 0.2992216
v -0.03439616 0.2699299 0.4236895
v 0.2119948 0.5189326 0.2705939
v 0.07510648 0.4826702 0.3677495
v 0.01349288 0.6776971 0.1110673
v 0.07510648 0.4826702 0.3677495
v -0.2322578 0.4852152 0.2870015
v 0.01349288 0.6776971 0.1110673
v -0.2322578 0.4852152 0.2870015
v -0.3622214 0.4687794 0.1319969
v -0.1769719 0.6538438 -0.01042623
v -0.3622214 0.4687794 0.1319969
v -0.309827 0.2648668 0.3043379
v -0.4359879 0.2548641 -0.08858457
v -0.1769719 0.6538438 -0.01042623
v -0.3622214 0.4687794 0.1319969
v -0.3422545 0.4637023 -0.1907771
v -0.3422545 0.4637023 -0.1907771
v -0.2099204 0.2463407 -0.3891677
v -0.07258333 0.5024385 -0.3625296
v 0.01379488 0.6504393 -0.1954616
v 0.2302142 0.6259207 0.02267539
v 0.01349288 0.6776971 0.1110673
v 0.3117606 0.2644598 0.2992216
v 0.07510648 0.4826702 0.3677495
v 0.2119948 0.5189326 0.2705939
v 0.2119948 0.5189326 0.2705939
v 0.01349288 0.6776971 0.1110673
v 0.2302142 0.6259207 0.02267539
v -0.03439616 0.2699299 0.4236895
v -0.2322578 0.4852152 0.2870015
v 0.07510648 0.4826702 0.3677495
v -0.03439616 0.2699299 0.4236895
v -0.309827 0.2648668 0.3043379
v -0.2322578 0.4852152 0.2870015
v -0.2322578 0.4852152 0.2870015
v -0.309827 0.2648668 0.3043379
v -0.3622214 0.4687794 0.1319969
v -0.2322578 0.4852152 0.2870015
v -0.1769719 0.6538438 -0.01042623
v 0.01349288 0.6776971 0.1110673
v -0.4359879 0.2548641 -0.08858457
v -0.3422545 0.4637023 -0.1907771
v -0.3622214 0.4687794 0.1319969
v 0.01598159 0.2510709 -0.4565678
v -0.2099204 0.2463407 -0.3891677
v -0.4359879 0.2548641 -0.08858457
v -0.4359879 0.2548641 -0.08858457
v -0.309827 0.2648668 0.3043379
v 0.01598159 0.2510709 -0.4565678
v -0.309827 0.2648668 0.3043379
v 0.4562823 0.2569238 -0.06127308
v 0.01598159 0.2510709 -0.4565678
v -0.309827 0.2648668 0.3043379
v -0.03439616 0.2699299 0.4236895
v 0.4562823 0.2569238 -0.06127308
v -0.03439616 0.2699299 0.4236895
v 0.3117606 0.2644598 0.2992216
v 0.4562823 0.2569238 -0.06127308
v -0.4359879 0.2548641 -0.08858457
v -0.2099204 0.2463407 -0.3891677
v -0.3422545 0.4637023 -0.1907771
v 0.01379488 0.6504393 -0.1954616
v -0.3422545 0.4637023 -0.1907771
v -0.07258333 0.5024385 -0.3625296
v -0.1769719 0.6538438 -0.01042623
v 0.4562823 0.2569238 -0.06127308
v 0.3572494 0.4482964 -0.1802056
v 0.2082071 0.460314 -0.3325699
v 0.01598159 0.2510709 -0.4565678
v 0.3572494 0.4482964 -0.1802056
v 0.2302142 0.6259207 0.02267539
v 0.01379488 0.6504393 -0.1954616
v 0.2082071 0.460314 -0.3325699
v 0.2119948 0.5189326 0.2705939
v 0.3558575 0.4954314 0.04875167
v 0.4562823 0.2569238 -0.06127308
v 0.3117606 0.2644598 0.2992216
v -0.1881897 0.0983497 -0.2017242
v 0.007594384 0.09605645 -0.2765794
v 0.008533368 0.3063869 -0.3091764
v -0.206335 0.3089036 -0.2270247
v 0.007594384 0.09605645 -0.2765794
v 0.1989898 0.09826423 -0.1911227
v 0.2185854 0.3088098 -0.2153897
v 0.008533368 0.3063869 -0.3091764
v 0.1989898 0.09826423 -0.1911227
v 0.2738798 0.1036798 0.004586557
v 0.3007753 0.3147533 -0.0006034171
v 0.2185854 0.3088098 -0.2153897
v 0.2738798 0.1036798 0.004586557
v 0.1883948 0.1091307 0.1959045
v 0.2069576 0.3207355 0.2093635
v 0.3007753 0.3147533 -0.0006034171
v 0.1883948 0.1091307 0.1959045
v -0.007389273 0.1114239 0.2707596
v -0.007910847 0.3232523 0.2915152
v 0.2069576 0.3207355 0.2093635
v -0.007389273 0.1114239 0.2707596
v -0.1987847 0.1092161 0.1853029
v -0.2179628 0.3208293 0.1977285
v -0.007910847 0.3232523 0.2915152
v -0.1987847 0.1092161 0.1853029
v -0.2736747 0.1038006 -0.0104063
v -0.3001528 0.3148859 -0.01705772
v -0.2179628 0.3208293 0.1977285
v -0.2736747 0.1038006 -0.0104063
v -0.1881897 0.0983497 -0.2017242
v -0.206335 0.3089036 -0.2270247
v -0.3001528 0.3148859 -0.01705772
v -0.3004641 6.632242E-05 -0.008227148
v -0.2066463 -0.005915939 -0.2181941
v -0.1881897 0.0983497 -0.2017242
v -0.2736747 0.1038006 -0.0104063
v -0.2182741 0.006009732 0.2065591
v -0.3004641 6.632242E-05 -0.008227148
v -0.2736747 0.1038006 -0.0104063
v -0.1987847 0.1092161 0.1853029
v -0.008222133 0.008432722 0.3003458
v -0.2182741 0.006009732 0.2065591
v -0.1987847 0.1092161 0.1853029
v -0.007389273 0.1114239 0.2707596
v 0.2066463 0.00591594 0.2181941
v -0.008222133 0.008432722 0.3003458
v -0.007389273 0.1114239 0.2707596
v 0.1883948 0.1091307 0.1959045
v 0.3004641 -6.632213E-05 0.008227159
v 0.2066463 0.00591594 0.2181941
v 0.1883948 0.1091307 0.1959045
v 0.2738798 0.1036798 0.004586557
v 0.2182741 -0.006009732 -0.2065591
v 0.3004641 -6.632213E-05 0.008227159
v 0.2738798 0.1036798 0.004586557
v 0.1989898 0.09826423 -0.1911227
v 0.008222082 -0.008432724 -0.3003459
v 0.2182741 -0.006009732 -0.2065591
v 0.1989898 0.09826423 -0.1911227
v 0.007594384 0.09605645 -0.2765794
v -0.2066463 -0.005915939 -0.2181941
v 0.008222082 -0.008432724 -0.3003459
v 0.007594384 0.09605645 -0.2765794
v -0.1881897 0.0983497 -0.2017242
vn -0.03928518 0.5737448 -0.05105837
vn -0.03928518 0.5737448 -0.05105837
vn -0.03928518 0.5737448 -0.05105837
vn -0.1626766 0.1429083 -0.5352073
vn -0.1626766 0.1429083 -0.5352073
vn -0.1626766 0.1429083 -0.5352073
vn 0.102951 0.3977709 -0.4056019
vn 0.102951 0.3977709 -0.4056019
vn 0.102951 0.3977709 -0.4056019
vn 0.08991343 0.2273486 -0.5230311
vn 0.08991343 0.2273486 -0.5230311
vn 0.08991343 0.2273486 -0.5230311
vn 0.4197935 0.3887219 -0.07747321
vn 0.4197935 0.3887219 -0.07747321
vn 0.4197935 0.3887219 -0.07747321
vn 0.5223864 0.2414152 -0.04652373
vn 0.5223864 0.2414152 -0.04652373
vn 0.5223864 0.2414152 -0.04652373
vn 0.3703032 0.3961528 0.1981712
vn 0.3703032 0.3961528 0.1981712
vn 0.3703032 0.3961528 0.1981712
vn 0.195425 0.0418382 0.5416567
vn 0.195425 0.0418382 0.5416567
vn 0.195425 0.0418382 0.5416567
vn 0.1087132 0.463753 0.3262638
vn 0.1087132 0.463753 0.3262638
vn 0.1087132 0.463753 0.3262638
vn -0.0905332 0.4433446 0.3585842
vn -0.0905332 0.4433446 0.3585842
vn -0.0905332 0.4433446 0.3585842
vn -0.2971511 0.4522805 0.2011888
vn -0.2971511 0.4522805 0.2011888
vn -0.2971511 0.4522805 0.2011888
vn -0.5497169 0.00776275 0.1763074
vn -0.5497169 0.00776275 0.1763074
vn -0.5497169 0.00776275 0.1763074
vn -0.4196026 0.3952617 -0.03217391
vn -0.4196026 0.3952617 -0.03217391
vn -0.4196026 0.3952617 -0.03217391
vn -0.3098415 0.2117919 -0.4387205
vn -0.3098415 0.2117919 -0.4387205
vn -0.3098415 0.2117919 -0.4387205
vn 0.1142766 0.5637134 -0.05001521
vn 0.1142766 0.5637134 -0.05001521
vn 0.1142766 0.5637134 -0.05001521
vn 0.2899148 0.1666096 0.4706634
vn 0.2899148 0.1666096 0.4706634
vn 0.2899148 0.1666096 0.4706634
vn 0.2089159 0.4884194 0.2261281
vn 0.2089159 0.4884194 0.2261281
vn 0.2089159 0.4884194 0.2261281
vn -0.1353558 0.2068639 0.5217466
vn -0.1353558 0.2068639 0.5217466
vn -0.1353558 0.2068639 0.5217466
vn -0.2263715 0.1203891 0.5172966
vn -0.2263715 0.1203891 0.5172966
vn -0.2263715 0.1203891 0.5172966
vn -0.4299657 0.1782373 0.3416055
vn -0.4299657 0.1782373 0.3416055
vn -0.4299657 0.1782373 0.3416055
vn -0.2104696 0.483531 0.2350186
vn -0.2104696 0.483531 0.2350186
vn -0.2104696 0.483531 0.2350186
vn -0.5321243 0.2210259 -0.03639383
vn -0.5321243 0.2210259 -0.03639383
vn -0.5321243 0.2210259 -0.03639383
vn 0.001696927 -0.5771958 0.01324956
vn 0.001696927 -0.5771958 0.01324956
vn 0.001696927 -0.5771958 0.01324956
vn 0.001696927 -0.5771958 0.01324956
vn 0.001696927 -0.5771958 0.01324956
vn 0.001696927 -0.5771958 0.01324956
vn 0.001696927 -0.5771958 0.01324956
vn 0.001696927 -0.5771958 0.01324956
vn 0.001696927 -0.5771958 0.01324956
vn 0.001696927 -0.5771958 0.01324956
vn 0.001696927 -0.5771958 0.01324956
vn 0.001696927 -0.5771958 0.01324956
vn 0.001696927 -0.5771958 0.01324956
vn 0.001696927 -0.5771958 0.01324956
vn 0.001696927 -0.5771958 0.01324956
vn -0.4599846 0.03665937 -0.3469922
vn -0.4599846 0.03665937 -0.3469922
vn -0.4599846 0.03665937 -0.3469922
vn -0.2388838 0.4486062 -0.2738985
vn -0.2388838 0.4486062 -0.2738985
vn -0.2388838 0.4486062 -0.2738985
vn -0.2424713 0.4558362 -0.2583688
vn 0.3882549 -0.08502244 -0.4187633
vn 0.3882549 -0.08502244 -0.4187633
vn 0.3882549 -0.08502244 -0.4187633
vn 0.3882549 -0.08502244 -0.4187633
vn 0.276509 0.4525915 -0.2281164
vn 0.276509 0.4525915 -0.2281164
vn 0.276509 0.4525915 -0.2281164
vn 0.276509 0.4525915 -0.2281164
vn 0.4996259 0.1634752 0.2387114
vn 0.4996259 0.1634752 0.2387114
vn 0.4996259 0.1634752 0.2387114
vn 0.4996259 0.1634752 0.2387114
vn -0.2049421 -0.08177031 -0.533522
vn -0.2049421 -0.08177031 -0.533522
vn -0.2049421 -0.08177031 -0.533522
vn -0.2049421 -0.08177031 -0.533522
vn 0.2337945 -0.0818672 -0.5215086
vn 0.2337945 -0.0818672 -0.5215086
vn 0.2337945 -0.0818672 -0.5215086
vn 0.2337945 -0.0818672 -0.5215086
vn 0.5355384 -0.07322878 -0.2029027
vn 0.5355384 -0.07322878 -0.2029027
vn 0.5355384 -0.07322878 -0.2029027
vn 0.5355384 -0.07322878 -0.2029027
vn 0.5235326 -0.06091529 0.2356613
vn 0.5235326 -0.06091529 0.2356613
vn 0.5235326 -0.06091529 0.2356613
vn 0.5235326 -0.06091529 0.2356613
vn 0.2048096 -0.05213998 0.5372781
vn 0.2048096 -0.05213998 0.5372781
vn 0.2048096 -0.05213998 0.5372781
vn 0.2048096 -0.05213998 0.5372781
vn -0.2339268 -0.05204312 0.5252648
vn -0.2339268 -0.05204312 0.5252648
vn -0.2339268 -0.05204312 0.5252648
vn -0.2339268 -0.05204312 0.5252648
vn -0.5356708 -0.06068156 0.2066588
vn -0.5356708 -0.06068156 0.2066588
vn -0.5356708 -0.06068156 0.2066588
vn -0.5356708 -0.06068156 0.2066588
vn -0.523665 -0.07299495 -0.2319051
vn -0.523665 -0.07299495 -0.2319051
vn -0.523665 -0.07299495 -0.2319051
vn -0.523665 -0.07299495 -0.2319051
vn -0.5127413 0.1275264 -0.2327373
vn -0.5127413 0.1275264 -0.2327373
vn -0.5127413 0.1275264 -0.2327373
vn -0.5127413 0.1275264 -0.2327373
vn -0.5245011 0.1395877 0.1968429
vn -0.5245011 0.1395877 0.1968429
vn -0.5245011 0.1395877 0.1968429
vn -0.5245011 0.1395877 0.1968429
vn -0.2289382 0.1480491 0.5089225
vn -0.2289382 0.1480491 0.5089225
vn -0.2289382 0.1480491 0.5089225
vn -0.2289382 0.1480491 0.5089225
vn 0.200811 0.1479543 0.5206897
vn 0.200811 0.1479543 0.5206897
vn 0.200811 0.1479543 0.5206897
vn 0.200811 0.1479543 0.5206897
vn 0.5130051 0.1393585 0.2252513
vn 0.5130051 0.1393585 0.2252513
vn 0.5130051 0.1393585 0.2252513
vn 0.5130051 0.1393585 0.2252513
vn 0.5247651 0.1272974 -0.2043289
vn 0.5247651 0.1272974 -0.2043289
vn 0.5247651 0.1272974 -0.2043289
vn 0.5247651 0.1272974 -0.2043289
vn 0.2292021 0.1188359 -0.5164084
vn 0.2292021 0.1188359 -0.5164084
vn 0.2292021 0.1188359 -0.5164084
vn 0.2292021 0.1188359 -0.5164084
vn -0.2005472 0.1189307 -0.5281757
vn -0.2005472 0.1189307 -0.5281757
vn -0.2005472 0.1189307 -0.5281757
vn -0.2005472 0.1189307 -0.5281757
vt 0.8713545 0.8612807
vt 0.6087947 0.860754
vt 0.734375 1
vt 0.6619526 0.7038369
vt 0.7095329 0.5006645
vt 0.6087703 0.5471636
vt 0.6087947 0.860754
vt 0.6619526 0.7038369
vt 0.5380706 0.662214
vt 0.6619526 0.7038369
vt 0.6087703 0.5471636
vt 0.5380706 0.662214
vt 0.3505773 0.8256176
vt 0.4490418 0.6469356
vt 0.3506204 0.684366
vt 0.3506204 0.684366
vt 0.4490418 0.6469356
vt 0.4019563 0.5052931
vt 0.3505773 0.8256176
vt 0.3506204 0.684366
vt 0.2297792 0.6971945
vt 0.1504213 0.6393715
vt 0.2617061 0.5083964
vt 0.1246888 0.5127783
vt 0.2297792 0.6971945
vt 0.1504213 0.6393715
vt 0.1848984 0.8936192
vt 0.1504213 0.6393715
vt 0.03407238 0.6701365
vt 0.1848984 0.8936192
vt 0.9881704 0.7276249
vt 0.9356804 0.6452078
vt 0.8713545 0.8612807
vt 0.9356804 0.6452078
vt 0.972653 0.5
vt 0.8517244 0.5005405
vt 0.8713545 0.8612807
vt 0.9356804 0.6452078
vt 0.8009464 0.6547651
vt 0.8009464 0.6547651
vt 0.7095329 0.5006645
vt 0.6619526 0.7038369
vt 0.6087947 0.860754
vt 0.3505773 0.8256176
vt 0.1848984 0.8936192
vt 0.2617061 0.5083964
vt 0.1504213 0.6393715
vt 0.2297792 0.6971945
vt 0.2297792 0.6971945
vt 0.1848984 0.8936192
vt 0.3505773 0.8256176
vt 0.1246888 0.5127783
vt 0.03407238 0.6701365
vt 0.1504213 0.6393715
vt 0.1246888 0.5127783
vt 0.3685941 0.5
vt 0.03407238 0.6701365
vt 0.03407238 0.6701365
vt 0.3685941 0.5
vt 2.98713E-08 0.5938224
vt 0.03407238 0.6701365
vt 5.960464E-08 0.8125
vt 0.1848984 0.8936192
vt 0.8517244 0.5005405
vt 0.8009464 0.6547651
vt 0.9356804 0.6452078
vt 0.6087703 0.5471636
vt 0.7095329 0.5006645
vt 0.8517244 0.5005405
vt 0.8517244 0.5005405
vt 0.3685941 0.5
vt 0.6087703 0.5471636
vt 0.3685941 0.5
vt 0.4019563 0.5052931
vt 0.6087703 0.5471636
vt 0.3685941 0.5
vt 0.1246888 0.5127783
vt 0.4019563 0.5052931
vt 0.1246888 0.5127783
vt 0.2617061 0.5083964
vt 0.4019563 0.5052931
vt 0.8517244 0.5005405
vt 0.7095329 0.5006645
vt 0.8009464 0.6547651
vt 0.6087947 0.860754
vt 0.8009464 0.6547651
vt 0.6619526 0.7038369
vt 0.8713545 0.8612807
vt 0.4019563 0.5052931
vt 0.4490418 0.6469356
vt 0.5380706 0.662214
vt 0.6087703 0.5471636
vt 0.4490418 0.6469356
vt 0.3505773 0.8256176
vt 0.6087947 0.860754
vt 0.5380706 0.662214
vt 0.2297792 0.6971945
vt 0.3506204 0.684366
vt 0.4019563 0.5052931
vt 0.2617061 0.5083964
vt 1 0.7129302
vt 0.875 0.7129302
vt 0.875 1
vt 1 1
vt 0.875 0.7129302
vt 0.7500001 0.7129302
vt 0.75 1
vt 0.875 1
vt 0.7500001 0.7129302
vt 0.625 0.7129302
vt 0.625 1
vt 0.75 1
vt 0.625 0.7129302
vt 0.5 0.7129302
vt 0.5 1
vt 0.625 1
vt 0.5 0.7129302
vt 0.375 0.7129302
vt 0.375 1
vt 0.5 1
vt 0.375 0.7129302
vt 0.25 0.7129302
vt 0.25 1
vt 0.375 1
vt 0.25 0.7129302
vt 0.125 0.7129302
vt 0.125 1
vt 0.25 1
vt 0.125 0.7129302
vt 0 0.7129302
vt 0 1
vt 0.125 1
vt 0.125 0.5
vt 0 0.5
vt 0 0.7129302
vt 0.125 0.7129302
vt 0.25 0.5
vt 0.125 0.5
vt 0.125 0.7129302
vt 0.25 0.7129302
vt 0.375 0.5
vt 0.25 0.5
vt 0.25 0.7129302
vt 0.375 0.7129302
vt 0.5 0.5
vt 0.375 0.5
vt 0.375 0.7129302
vt 0.5 0.7129302
vt 0.625 0.5
vt 0.5 0.5
vt 0.5 0.7129302
vt 0.625 0.7129302
vt 0.75 0.5
vt 0.625 0.5
vt 0.625 0.7129302
vt 0.7500001 0.7129302
vt 0.875 0.5
vt 0.75 0.5
vt 0.7500001 0.7129302
vt 0.875 0.7129302
vt 1 0.5
vt 0.875 0.5
vt 0.875 0.7129302
vt 1 0.7129302
usemtl Mushroom2Mat
f 3/3/3 2/2/2 1/1/1
f 6/6/6 5/5/5 4/4/4
f 9/9/9 8/8/8 7/7/7
f 12/12/12 11/11/11 10/10/10
f 15/15/15 14/14/14 13/13/13
f 18/18/18 17/17/17 16/16/16
f 21/21/21 20/20/20 19/19/19
f 24/24/24 23/23/23 22/22/22
f 27/27/27 26/26/26 25/25/25
f 30/30/30 29/29/29 28/28/28
f 33/33/33 32/32/32 31/31/31
f 36/36/36 35/35/35 34/34/34
f 39/39/39 38/38/38 37/37/37
f 42/42/42 41/41/41 40/40/40
f 45/45/45 44/44/44 43/43/43
f 48/48/48 47/47/47 46/46/46
f 51/51/51 50/50/50 49/49/49
f 54/54/54 53/53/53 52/52/52
f 57/57/57 56/56/56 55/55/55
f 60/60/60 59/59/59 58/58/58
f 63/63/63 62/62/62 61/61/61
f 66/66/66 65/65/65 64/64/64
f 69/69/69 68/68/68 67/67/67
f 72/72/72 71/71/71 70/70/70
f 75/75/75 74/74/74 73/73/73
f 78/78/78 77/77/77 76/76/76
f 81/81/81 80/80/80 79/79/79
f 84/84/84 83/83/83 82/82/82
f 87/87/87 86/86/86 85/85/85
f 88/88/88 85/85/85 86/86/86
f 91/91/91 90/90/90 89/89/89
f 92/92/92 91/91/91 89/89/89
f 95/95/95 94/94/94 93/93/93
f 96/96/96 95/95/95 93/93/93
f 99/99/99 98/98/98 97/97/97
f 100/100/100 99/99/99 97/97/97
usemtl Wood2Mat
f 103/103/103 102/102/102 101/101/101
f 104/104/104 103/103/103 101/101/101
f 107/107/107 106/106/106 105/105/105
f 108/108/108 107/107/107 105/105/105
f 111/111/111 110/110/110 109/109/109
f 112/112/112 111/111/111 109/109/109
f 115/115/115 114/114/114 113/113/113
f 116/116/116 115/115/115 113/113/113
f 119/119/119 118/118/118 117/117/117
f 120/120/120 119/119/119 117/117/117
f 123/123/123 122/122/122 121/121/121
f 124/124/124 123/123/123 121/121/121
f 127/127/127 126/126/126 125/125/125
f 128/128/128 127/127/127 125/125/125
f 131/131/131 130/130/130 129/129/129
f 132/132/132 131/131/131 129/129/129
f 135/135/135 134/134/134 133/133/133
f 136/136/136 135/135/135 133/133/133
f 139/139/139 138/138/138 137/137/137
f 140/140/140 139/139/139 137/137/137
f 143/143/143 142/142/142 141/141/141
f 144/144/144 143/143/143 141/141/141
f 147/147/147 146/146/146 145/145/145
f 148/148/148 147/147/147 145/145/145
f 151/151/151 150/150/150 149/149/149
f 152/152/152 151/151/151 149/149/149
f 155/155/155 154/154/154 153/153/153
f 156/156/156 155/155/155 153/153/153
f 159/159/159 158/158/158 157/157/157
f 160/160/160 159/159/159 157/157/157
f 163/163/163 162/162/162 161/161/161
f 164/164/164 163/163/163 161/161/161
