# Export of New Scene
# from Aaro4130 OBJ Exporter v2.0
mtllib rock_1.mtl
g rock_1
v -0.3097096 0.2383282 -0.02021385
v -0.1579811 0.1283 0.338749
v -0.3840968 0.009882957 0.02630005
v -0.3220611 -0.1082583 0.01375516
v -0.2363845 -0.01206791 -0.2897688
v -0.3840968 0.009882957 0.02630005
v -0.2363845 -0.01206791 -0.2897688
v -0.1314553 -0.1584212 -0.1400209
v 0.1650027 -0.01148752 -0.3689007
v -0.1298196 0.330274 0.1470758
v -0.1579811 0.1283 0.338749
v -0.3097096 0.2383282 -0.02021385
v 0.03466689 0.2818323 -0.2234329
v -0.1657066 0.4896006 -0.02045421
v -0.2306333 0.369833 -0.1593883
v 0.03466689 0.2818323 -0.2234329
v -0.2306333 0.369833 -0.1593883
v -0.2363845 -0.01206791 -0.2897688
v 0.03466689 0.2818323 -0.2234329
v -0.2363845 -0.01206791 -0.2897688
v 0.1383361 0.06284375 -0.3762155
v -0.1298196 0.330274 0.1470758
v 0.06497019 0.3404972 0.1642242
v 0.01696568 0.2101052 0.3557976
v -0.1657066 0.4896006 -0.02045421
v 0.03466689 0.2818323 -0.2234329
v 0.03884473 0.4171506 -0.01520309
v -0.1657066 0.4896006 -0.02045421
v -0.1298196 0.330274 0.1470758
v -0.3097096 0.2383282 -0.02021385
v 0.06497019 0.3404972 0.1642242
v -0.1657066 0.4896006 -0.02045421
v 0.03884473 0.4171506 -0.01520309
v 0.0193718 -0.1592962 0.07917713
v 0.2764188 -0.09704676 0.03060015
v 0.1486774 -0.1380183 -0.1866414
v 0.4481637 0.1939413 -0.01367941
v 0.222783 0.4835116 -0.06363989
v 0.2681473 0.1071398 -0.2006193
v 0.01696568 0.2101052 0.3557976
v 0.06497019 0.3404972 0.1642242
v 0.2642926 0.07155921 0.2902139
v 0.2262582 -0.02605361 0.3118652
v 0.2764188 -0.09704676 0.03060015
v 0.0193718 -0.1592962 0.07917713
v 0.0193718 -0.1592962 0.07917713
v -0.05071859 -0.04442518 0.3757497
v 0.2262582 -0.02605361 0.3118652
v 0.2360498 0.4987387 0.03726926
v 0.222783 0.4835116 -0.06363989
v 0.4481637 0.1939413 -0.01367941
v -0.1298196 0.330274 0.1470758
v 0.01696568 0.2101052 0.3557976
v -0.1579811 0.1283 0.338749
v 0.2360498 0.4987387 0.03726926
v 0.2642926 0.07155921 0.2902139
v 0.06497019 0.3404972 0.1642242
v 0.0193718 -0.1592962 0.07917713
v -0.3220611 -0.1082583 0.01375516
v -0.05071859 -0.04442518 0.3757497
v 0.06497019 0.3404972 0.1642242
v -0.1298196 0.330274 0.1470758
v -0.1657066 0.4896006 -0.02045421
v -0.3220611 -0.1082583 0.01375516
v -0.3840968 0.009882957 0.02630005
v -0.143378 -0.00925485 0.3380728
v -0.3097096 0.2383282 -0.02021385
v -0.2306333 0.369833 -0.1593883
v -0.1657066 0.4896006 -0.02045421
v -0.2363845 -0.01206791 -0.2897688
v -0.3220611 -0.1082583 0.01375516
v -0.1314553 -0.1584212 -0.1400209
v -0.3097096 0.2383282 -0.02021385
v -0.2363845 -0.01206791 -0.2897688
v -0.2306333 0.369833 -0.1593883
v 0.06497019 0.3404972 0.1642242
v 0.03884473 0.4171506 -0.01520309
v 0.2360498 0.4987387 0.03726926
v 0.1650027 -0.01148752 -0.3689007
v -0.1314553 -0.1584212 -0.1400209
v 0.1486774 -0.1380183 -0.1866414
v -0.2363845 -0.01206791 -0.2897688
v 0.1650027 -0.01148752 -0.3689007
v 0.1383361 0.06284375 -0.3762155
v 0.03884473 0.4171506 -0.01520309
v 0.222783 0.4835116 -0.06363989
v 0.2360498 0.4987387 0.03726926
v -0.1314553 -0.1584212 -0.1400209
v -0.3220611 -0.1082583 0.01375516
v 0.0193718 -0.1592962 0.07917713
v 0.222783 0.4835116 -0.06363989
v 0.03884473 0.4171506 -0.01520309
v 0.03466689 0.2818323 -0.2234329
v 0.0193718 -0.1592962 0.07917713
v 0.1486774 -0.1380183 -0.1866414
v -0.1314553 -0.1584212 -0.1400209
v 0.03466689 0.2818323 -0.2234329
v 0.2681473 0.1071398 -0.2006193
v 0.222783 0.4835116 -0.06363989
v 0.1650027 -0.01148752 -0.3689007
v 0.1486774 -0.1380183 -0.1866414
v 0.2764188 -0.09704676 0.03060015
v 0.2681473 0.1071398 -0.2006193
v 0.2764188 -0.09704676 0.03060015
v 0.4818995 0.05298585 0.04401292
v 0.2764188 -0.09704676 0.03060015
v 0.2262582 -0.02605361 0.3118652
v 0.4818995 0.05298585 0.04401292
v 0.4818995 0.05298585 0.04401292
v 0.4370003 0.2188941 0.113025
v 0.4481637 0.1939413 -0.01367941
v -0.05071859 -0.04442518 0.3757497
v -0.3220611 -0.1082583 0.01375516
v -0.143378 -0.00925485 0.3380728
v -0.1579811 0.1283 0.338749
v -0.143378 -0.00925485 0.3380728
v -0.3840968 0.009882957 0.02630005
v -0.05071859 -0.04442518 0.3757497
v -0.143378 -0.00925485 0.3380728
v -0.1579811 0.1283 0.338749
v 0.01696568 0.2101052 0.3557976
v -0.05071859 -0.04442518 0.3757497
v -0.1579811 0.1283 0.338749
v 0.2642926 0.07155921 0.2902139
v 0.2262582 -0.02605361 0.3118652
v -0.05071859 -0.04442518 0.3757497
v 0.2642926 0.07155921 0.2902139
v -0.05071859 -0.04442518 0.3757497
v 0.01696568 0.2101052 0.3557976
v 0.2360498 0.4987387 0.03726926
v 0.4370003 0.2188941 0.113025
v 0.2642926 0.07155921 0.2902139
v 0.4818995 0.05298585 0.04401292
v 0.2262582 -0.02605361 0.3118652
v 0.2642926 0.07155921 0.2902139
v 0.4370003 0.2188941 0.113025
v 0.4818995 0.05298585 0.04401292
v 0.2642926 0.07155921 0.2902139
v 0.4481637 0.1939413 -0.01367941
v 0.4370003 0.2188941 0.113025
v 0.2360498 0.4987387 0.03726926
v 0.4481637 0.1939413 -0.01367941
v 0.2681473 0.1071398 -0.2006193
v 0.4818995 0.05298585 0.04401292
v 0.2681473 0.1071398 -0.2006193
v 0.1650027 -0.01148752 -0.3689007
v 0.2764188 -0.09704676 0.03060015
v 0.1383361 0.06284375 -0.3762155
v 0.1650027 -0.01148752 -0.3689007
v 0.2681473 0.1071398 -0.2006193
v 0.03466689 0.2818323 -0.2234329
v 0.1383361 0.06284375 -0.3762155
v 0.2681473 0.1071398 -0.2006193
v -0.3097096 0.2383282 -0.02021385
v -0.3840968 0.009882957 0.02630005
v -0.2363845 -0.01206791 -0.2897688
vn -0.470878 0.2067582 0.2624085
vn -0.470878 0.2067582 0.2624085
vn -0.470878 0.2067582 0.2624085
vn -0.4848657 -0.2322534 -0.2104684
vn -0.4848657 -0.2322534 -0.2104684
vn -0.4848657 -0.2322534 -0.2104684
vn -0.07297364 -0.434314 -0.3733356
vn -0.07297364 -0.434314 -0.3733356
vn -0.07297364 -0.434314 -0.3733356
vn -0.4070401 0.3102871 0.2671584
vn -0.4070401 0.3102871 0.2671584
vn -0.4070401 0.3102871 0.2671584
vn 0.04717691 0.4247468 -0.3881982
vn 0.04717691 0.4247468 -0.3881982
vn 0.04717691 0.4247468 -0.3881982
vn -0.06913545 0.1861255 -0.5421355
vn -0.06913545 0.1861255 -0.5421355
vn -0.06913545 0.1861255 -0.5421355
vn -0.1648113 0.2620013 -0.4873662
vn -0.1648113 0.2620013 -0.4873662
vn -0.1648113 0.2620013 -0.4873662
vn -0.05293846 0.4813579 0.3143651
vn -0.05293846 0.4813579 0.3143651
vn -0.05293846 0.4813579 0.3143651
vn 0.1709919 0.4608159 -0.3028924
vn 0.1709919 0.4608159 -0.3028924
vn 0.1709919 0.4608159 -0.3028924
vn -0.418109 0.2399203 0.3177364
vn -0.418109 0.2399203 0.3177364
vn -0.418109 0.2399203 0.3177364
vn 0.177137 0.5141703 0.1938676
vn 0.177137 0.5141703 0.1938676
vn 0.177137 0.5141703 0.1938676
vn 0.1399294 -0.5596532 0.02326925
vn 0.1399294 -0.5596532 0.02326925
vn 0.1399294 -0.5596532 0.02326925
vn 0.343524 0.1947023 -0.4212072
vn 0.343524 0.1947023 -0.4212072
vn 0.343524 0.1947023 -0.4212072
vn 0.2954972 0.372456 0.3275534
vn 0.2954972 0.372456 0.3275534
vn 0.2954972 0.372456 0.3275534
vn 0.159198 -0.5306926 0.1623415
vn 0.159198 -0.5306926 0.1623415
vn 0.159198 -0.5306926 0.1623415
vn 0.08645724 -0.5251274 0.2238297
vn 0.08645724 -0.5251274 0.2238297
vn 0.08645724 -0.5251274 0.2238297
vn 0.4562577 0.3360204 -0.1106909
vn 0.4562577 0.3360204 -0.1106909
vn 0.4562577 0.3360204 -0.1106909
vn -0.2159636 0.3841145 0.373027
vn -0.2159636 0.3841145 0.373027
vn -0.2159636 0.3841145 0.373027
vn 0.08942838 0.2949792 0.4881835
vn 0.08942838 0.2949792 0.4881835
vn 0.08942838 0.2949792 0.4881835
vn -0.114759 -0.5362412 0.1805799
vn -0.114759 -0.5362412 0.1805799
vn -0.114759 -0.5362412 0.1805799
vn -0.056944 0.4101822 0.402295
vn -0.056944 0.4101822 0.402295
vn -0.056944 0.4101822 0.402295
vn -0.4184 -0.2523588 0.3075546
vn -0.4184 -0.2523588 0.3075546
vn -0.4184 -0.2523588 0.3075546
vn -0.5007915 0.2869886 -0.01336721
vn -0.5007915 0.2869886 -0.01336721
vn -0.5007915 0.2869886 -0.01336721
vn -0.2968058 -0.4417703 -0.2237826
vn -0.2968058 -0.4417703 -0.2237826
vn -0.2968058 -0.4417703 -0.2237826
vn -0.5269569 0.08328594 -0.2207107
vn -0.5269569 0.08328594 -0.2207107
vn -0.5269569 0.08328594 -0.2207107
vn -0.253763 0.4625222 0.234544
vn -0.253763 0.4625222 0.234544
vn -0.253763 0.4625222 0.234544
vn -0.02050889 -0.4731033 -0.3302817
vn -0.02050889 -0.4731033 -0.3302817
vn -0.02050889 -0.4731033 -0.3302817
vn -0.1100363 -0.0944705 -0.5588387
vn -0.1100363 -0.0944705 -0.5588387
vn -0.1100363 -0.0944705 -0.5588387
vn -0.207527 0.5360892 -0.05361122
vn -0.207527 0.5360892 -0.05361122
vn -0.207527 0.5360892 -0.05361122
vn -0.09687283 -0.5655102 0.06439959
vn -0.09687283 -0.5655102 0.06439959
vn -0.09687283 -0.5655102 0.06439959
vn -0.2350847 0.4443025 -0.2840138
vn -0.2350847 0.4443025 -0.2840138
vn -0.2350847 0.4443025 -0.2840138
vn 0.03726379 -0.5754687 -0.02793772
vn 0.03726379 -0.5754687 -0.02793772
vn 0.03726379 -0.5754687 -0.02793772
vn 0.2031497 0.2062814 -0.4995113
vn 0.2031497 0.2062814 -0.4995113
vn 0.2031497 0.2062814 -0.4995113
vn 0.432068 -0.3316184 -0.1915198
vn 0.432068 -0.3316184 -0.1915198
vn 0.432068 -0.3316184 -0.1915198
vn 0.2910224 -0.36855 -0.3358722
vn 0.2910224 -0.36855 -0.3358722
vn 0.2910224 -0.36855 -0.3358722
vn 0.3179777 -0.4507343 0.1704762
vn 0.3179777 -0.4507343 0.1704762
vn 0.3179777 -0.4507343 0.1704762
vn 0.5590898 0.1424869 0.02119846
vn 0.5590898 0.1424869 0.02119846
vn 0.5590898 0.1424869 0.02119846
vn -0.2747328 -0.4232461 0.2805672
vn -0.2747328 -0.4232461 0.2805672
vn -0.2747328 -0.4232461 0.2805672
vn -0.4567434 -0.05020682 0.3495683
vn -0.4567434 -0.05020682 0.3495683
vn -0.4567434 -0.05020682 0.3495683
vn -0.2258703 -0.02658719 0.5306685
vn -0.2258703 -0.02658719 0.5306685
vn -0.2258703 -0.02658719 0.5306685
vn -0.086801 0.0675109 0.5667815
vn -0.086801 0.0675109 0.5667815
vn -0.086801 0.0675109 0.5667815
vn 0.1238677 0.0756833 0.5588042
vn 0.1238677 0.0756833 0.5588042
vn 0.1238677 0.0756833 0.5588042
vn 0.1499773 0.00382079 0.5575173
vn 0.1499773 0.00382079 0.5575173
vn 0.1499773 0.00382079 0.5575173
vn 0.2227164 0.2822209 0.4517545
vn 0.2227164 0.2822209 0.4517545
vn 0.2227164 0.2822209 0.4517545
vn 0.4252746 -0.08097709 0.3819916
vn 0.4252746 -0.08097709 0.3819916
vn 0.4252746 -0.08097709 0.3819916
vn 0.429776 -0.0430513 0.383109
vn 0.429776 -0.0430513 0.383109
vn 0.429776 -0.0430513 0.383109
vn 0.4716074 0.3321898 -0.02386927
vn 0.4716074 0.3321898 -0.02386927
vn 0.4716074 0.3321898 -0.02386927
vn 0.4266096 -0.05549284 -0.3850429
vn 0.4266096 -0.05549284 -0.3850429
vn 0.4266096 -0.05549284 -0.3850429
vn 0.5144784 -0.1869839 -0.1835274
vn 0.5144784 -0.1869839 -0.1835274
vn 0.5144784 -0.1869839 -0.1835274
vn 0.4385164 0.1223798 -0.3550491
vn 0.4385164 0.1223798 -0.3550491
vn 0.4385164 0.1223798 -0.3550491
vn 0.3074243 0.3690425 -0.3203612
vn 0.3074243 0.3690425 -0.3203612
vn 0.3074243 0.3690425 -0.3203612
vn -0.5093058 0.1157419 -0.2460585
vn -0.5093058 0.1157419 -0.2460585
vn -0.5093058 0.1157419 -0.2460585
vt 0.5477629 0.7149114
vt 0.6314249 0.901565
vt 0.6314249 0.6702519
vt 0.7286718 0.9524689
vt 0.7281982 0.8654377
vt 0.6545759 0.9524689
vt 0.02201786 0.7870599
vt 0.02504726 0.8755767
vt 0.2199479 0.9008899
vt 0.5197291 0.8624869
vt 0.6314249 0.901565
vt 0.5477629 0.7149114
vt 0.2273746 0.7069241
vt 0.17498 0.5321129
vt 0.1195071 0.5864806
vt 0.2273746 0.7069241
vt 0.1195071 0.5864806
vt 0.02201786 0.7870599
vt 0.2273746 0.7069241
vt 0.02201786 0.7870599
vt 0.2273746 0.8572012
vt 0.2487827 0.96021
vt 0.3486014 0.96021
vt 0.3003842 0.850458
vt 0.9439882 0.2135053
vt 0.8919172 0.02536064
vt 0.8689905 0.1623185
vt 0.4489169 0.8061559
vt 0.5197291 0.8624869
vt 0.5477629 0.7149114
vt 0.7728906 0.2135053
vt 0.9439882 0.2135053
vt 0.8689905 0.1623185
vt 0.232924 0.223947
vt 0.1116493 0.1459029
vt 0.08959216 0.2904517
vt 0.7180543 0.6249759
vt 0.8223765 0.8050144
vt 0.8223765 0.5863411
vt 0.9157048 0.3545126
vt 0.9924018 0.4416857
vt 0.9924018 0.2376794
vt 0.2344531 0.03487979
vt 0.1116493 0.1459029
vt 0.232924 0.223947
vt 0.232924 0.223947
vt 0.3733919 0.1091071
vt 0.2344531 0.03487979
vt 0.7717261 0.8311332
vt 0.8223765 0.8050144
vt 0.7180543 0.6249759
vt 0.7299464 0.3005205
vt 0.6199809 0.265499
vt 0.6242898 0.375037
vt 0.7299464 0.0650758
vt 0.4955773 0.1702572
vt 0.6856241 0.1988111
vt 0.232924 0.223947
vt 0.3621703 0.37067
vt 0.3733919 0.1091071
vt 0.9117323 0.8188626
vt 0.8427449 0.9045677
vt 0.9117323 0.9837239
vt 0.3621703 0.37067
vt 0.4036589 0.3758639
vt 0.4036589 0.1554451
vt 0.5477629 0.7149114
vt 0.4459627 0.7021894
vt 0.4489169 0.8061559
vt 0.2315885 0.4618368
vt 0.3621703 0.37067
vt 0.2238815 0.3735152
vt 0.5477629 0.7149114
vt 0.4661144 0.5725452
vt 0.4459627 0.7021894
vt 0.8978075 0.4668614
vt 0.8795034 0.3687778
vt 0.7664436 0.4145108
vt 0.03244275 0.3510303
vt 0.2238815 0.3735152
vt 0.08959216 0.2904517
vt 0.02201786 0.7870599
vt 0.2199479 0.9008899
vt 0.2273746 0.8572012
vt 0.8795034 0.3687778
vt 0.7691022 0.3555543
vt 0.7664436 0.4145108
vt 0.2238815 0.3735152
vt 0.3621703 0.37067
vt 0.232924 0.223947
vt 0.7691022 0.3555543
vt 0.8795034 0.3687778
vt 0.8978075 0.2414667
vt 0.232924 0.223947
vt 0.08959216 0.2904517
vt 0.2238815 0.3735152
vt 0.8467641 0.6702984
vt 0.9544984 0.7881154
vt 0.9544984 0.5636632
vt 0.03244275 0.3510303
vt 0.08959216 0.2904517
vt 0.1116493 0.1459029
vt 0.05551994 0.2288749
vt 0.1116493 0.1459029
vt 0.04132032 0.05083711
vt 0.1116493 0.1459029
vt 0.2344531 0.03487979
vt 0.04132032 0.05083711
vt 0.6602349 0.5629433
vt 0.659106 0.6672234
vt 0.7180543 0.6249759
vt 0.3733919 0.1091071
vt 0.3621703 0.37067
vt 0.4036589 0.1554451
vt 0.6242898 0.375037
vt 0.5532724 0.4021136
vt 0.6441907 0.5057811
vt 0.5104671 0.3652277
vt 0.5532724 0.4021136
vt 0.6242898 0.375037
vt 0.6199809 0.265499
vt 0.5104671 0.3652277
vt 0.6242898 0.375037
vt 0.4955773 0.1702572
vt 0.4555715 0.2153774
vt 0.5104671 0.3652277
vt 0.4955773 0.1702572
vt 0.5104671 0.3652277
vt 0.6199809 0.265499
vt 0.7299464 0.0650758
vt 0.5377038 0.03600435
vt 0.4955773 0.1702572
vt 0.4501333 0.05136588
vt 0.4555715 0.2153774
vt 0.4955773 0.1702572
vt 0.5377038 0.03600435
vt 0.4501333 0.05136588
vt 0.4955773 0.1702572
vt 0.7180543 0.6249759
vt 0.659106 0.6672234
vt 0.7717261 0.8311332
vt 0.7180543 0.6249759
vt 0.8223765 0.5863411
vt 0.6602349 0.5629433
vt 0.3527674 0.6570603
vt 0.2522497 0.6338788
vt 0.410604 0.8121736
vt 0.2705199 0.5931539
vt 0.2522497 0.6338788
vt 0.3527674 0.6570603
vt 0.410604 0.5161662
vt 0.2705199 0.5931539
vt 0.3527674 0.6570603
vt 0.5477629 0.7149114
vt 0.6314249 0.6702519
vt 0.4661144 0.5725452
usemtl RockMat
f 3/3/3 2/2/2 1/1/1
f 6/6/6 5/5/5 4/4/4
f 9/9/9 8/8/8 7/7/7
f 12/12/12 11/11/11 10/10/10
f 15/15/15 14/14/14 13/13/13
f 18/18/18 17/17/17 16/16/16
f 21/21/21 20/20/20 19/19/19
f 24/24/24 23/23/23 22/22/22
f 27/27/27 26/26/26 25/25/25
f 30/30/30 29/29/29 28/28/28
f 33/33/33 32/32/32 31/31/31
f 36/36/36 35/35/35 34/34/34
f 39/39/39 38/38/38 37/37/37
f 42/42/42 41/41/41 40/40/40
f 45/45/45 44/44/44 43/43/43
f 48/48/48 47/47/47 46/46/46
f 51/51/51 50/50/50 49/49/49
f 54/54/54 53/53/53 52/52/52
f 57/57/57 56/56/56 55/55/55
f 60/60/60 59/59/59 58/58/58
f 63/63/63 62/62/62 61/61/61
f 66/66/66 65/65/65 64/64/64
f 69/69/69 68/68/68 67/67/67
f 72/72/72 71/71/71 70/70/70
f 75/75/75 74/74/74 73/73/73
f 78/78/78 77/77/77 76/76/76
f 81/81/81 80/80/80 79/79/79
f 84/84/84 83/83/83 82/82/82
f 87/87/87 86/86/86 85/85/85
f 90/90/90 89/89/89 88/88/88
f 93/93/93 92/92/92 91/91/91
f 96/96/96 95/95/95 94/94/94
f 99/99/99 98/98/98 97/97/97
f 102/102/102 101/101/101 100/100/100
f 105/105/105 104/104/104 103/103/103
f 108/108/108 107/107/107 106/106/106
f 111/111/111 110/110/110 109/109/109
f 114/114/114 113/113/113 112/112/112
f 117/117/117 116/116/116 115/115/115
f 120/120/120 119/119/119 118/118/118
f 123/123/123 122/122/122 121/121/121
f 126/126/126 125/125/125 124/124/124
f 129/129/129 128/128/128 127/127/127
f 132/132/132 131/131/131 130/130/130
f 135/135/135 134/134/134 133/133/133
f 138/138/138 137/137/137 136/136/136
f 141/141/141 140/140/140 139/139/139
f 144/144/144 143/143/143 142/142/142
f 147/147/147 146/146/146 145/145/145
f 150/150/150 149/149/149 148/148/148
f 153/153/153 152/152/152 151/151/151
f 156/156/156 155/155/155 154/154/154
